HIERARCHY
ROOT hip
{
  OFFSET 71.9965 68.8311 103.843
  CHANNELS 6 Xposition Yposition Zposition Zrotation Xrotation Yrotation
  JOINT abdomen
  {
    OFFSET 0 20.6881 -0.73152
    CHANNELS 3 Zrotation Xrotation Yrotation
    JOINT chest
    {
      OFFSET 0 11.7043 -0.48768
      CHANNELS 3 Zrotation Xrotation Yrotation
      JOINT neck
      {
        OFFSET 0 22.1894 -2.19456
        CHANNELS 3 Zrotation Xrotation Yrotation
        JOINT head
        {
          OFFSET -0.24384 7.07133 1.2192
          CHANNELS 3 Zrotation Xrotation Yrotation
          JOINT leftEye
          {
            OFFSET 4.14528 8.04674 8.04672
            CHANNELS 3 Zrotation Xrotation Yrotation
            End Site
            {
              OFFSET 1 0 0
            }
          }
          JOINT rightEye
          {
            OFFSET -3.6576 8.04674 8.04672
            CHANNELS 3 Zrotation Xrotation Yrotation
            End Site
            {
              OFFSET 1 0 0
            }
          }
        }
      }
      JOINT rCollar
      {
        OFFSET -2.68224 19.2634 -4.8768
        CHANNELS 3 Zrotation Xrotation Yrotation
        JOINT rShldr
        {
          OFFSET -8.77824 -1.95073 1.46304
          CHANNELS 3 Zrotation Xrotation Yrotation
          JOINT rForeArm
          {
            OFFSET -28.1742 -1.7115 0.48768
            CHANNELS 3 Zrotation Xrotation Yrotation
            JOINT rHand
            {
              OFFSET -22.5879 0.773209 7.07136
              CHANNELS 3 Zrotation Xrotation Yrotation
              JOINT rThumb1
              {
                OFFSET -1.2192 -0.487915 3.41376
                CHANNELS 3 Zrotation Xrotation Yrotation
                JOINT rThumb2
                {
                  OFFSET -3.37035 -0.52449 3.41376
                  CHANNELS 3 Zrotation Xrotation Yrotation
                  End Site
                  {
                    OFFSET -1.78271 -1.18214 1.43049
                  }
                }
              }
              JOINT rIndex1
              {
                OFFSET -7.75947 0.938293 5.60832
                CHANNELS 3 Zrotation Xrotation Yrotation
                JOINT rIndex2
                {
                  OFFSET -2.54057 -0.884171 1.56538
                  CHANNELS 3 Zrotation Xrotation Yrotation
                  End Site
                  {
                    OFFSET -1.62519 -0.234802 1.16502
                  }
                }
              }
              JOINT rMid1
              {
                OFFSET -8.24714 1.18213 3.41376
                CHANNELS 3 Zrotation Xrotation Yrotation
                JOINT rMid2
                {
                  OFFSET -3.10165 -0.590103 1.0647
                  CHANNELS 3 Zrotation Xrotation Yrotation
                  End Site
                  {
                    OFFSET -2.48547 -0.328903 0.83742
                  }
                }
              }
              JOINT rRing1
              {
                OFFSET -8.82822 0.546677 1.51678
                CHANNELS 3 Zrotation Xrotation Yrotation
                JOINT rRing2
                {
                  OFFSET -2.60934 -0.819778 -0.0198488
                  CHANNELS 3 Zrotation Xrotation Yrotation
                  End Site
                  {
                    OFFSET -2.33842 -0.294052 0.168128
                  }
                }
              }
              JOINT rPinky1
              {
                OFFSET -8.27202 -0.0477905 -0.4584
                CHANNELS 3 Zrotation Xrotation Yrotation
                JOINT rPinky2
                {
                  OFFSET -1.82734 -0.647385 -0.700984
                  CHANNELS 3 Zrotation Xrotation Yrotation
                  End Site
                  {
                    OFFSET -1.69225 -0.51767 -0.607171
                  }
                }
              }
            }
          }
        }
      }
      JOINT lCollar
      {
        OFFSET 2.68224 19.2634 -4.8768
        CHANNELS 3 Zrotation Xrotation Yrotation
        JOINT lShldr
        {
          OFFSET 8.77824 -1.95073 1.46304
          CHANNELS 3 Zrotation Xrotation Yrotation
          JOINT lForeArm
          {
            OFFSET 28.1742 -1.7115 0.48768
            CHANNELS 3 Zrotation Xrotation Yrotation
            JOINT lHand
            {
              OFFSET 22.5879 0.773209 7.07136
              CHANNELS 3 Zrotation Xrotation Yrotation
              JOINT lThumb1
              {
                OFFSET 1.2192 -0.487915 3.41376
                CHANNELS 3 Zrotation Xrotation Yrotation
                JOINT lThumb2
                {
                  OFFSET 3.37035 -0.52449 3.41376
                  CHANNELS 3 Zrotation Xrotation Yrotation
                  End Site
                  {
                    OFFSET 1.78271 -1.18214 1.43049
                  }
                }
              }
              JOINT lIndex1
              {
                OFFSET 7.75947 0.938293 5.60832
                CHANNELS 3 Zrotation Xrotation Yrotation
                JOINT lIndex2
                {
                  OFFSET 2.54057 -0.884171 1.56538
                  CHANNELS 3 Zrotation Xrotation Yrotation
                  End Site
                  {
                    OFFSET 1.62519 -0.234802 1.16502
                  }
                }
              }
              JOINT lMid1
              {
                OFFSET 8.24714 1.18213 3.41376
                CHANNELS 3 Zrotation Xrotation Yrotation
                JOINT lMid2
                {
                  OFFSET 3.10165 -0.590103 1.0647
                  CHANNELS 3 Zrotation Xrotation Yrotation
                  End Site
                  {
                    OFFSET 2.48547 -0.328903 0.83742
                  }
                }
              }
              JOINT lRing1
              {
                OFFSET 8.82822 0.546677 1.51678
                CHANNELS 3 Zrotation Xrotation Yrotation
                JOINT lRing2
                {
                  OFFSET 2.60934 -0.819778 -0.0198488
                  CHANNELS 3 Zrotation Xrotation Yrotation
                  End Site
                  {
                    OFFSET 2.33842 -0.294052 0.168128
                  }
                }
              }
              JOINT lPinky1
              {
                OFFSET 8.27202 -0.0477905 -0.4584
                CHANNELS 3 Zrotation Xrotation Yrotation
                JOINT lPinky2
                {
                  OFFSET 1.82734 -0.647385 -0.700984
                  CHANNELS 3 Zrotation Xrotation Yrotation
                  End Site
                  {
                    OFFSET 1.69225 -0.51767 -0.607171
                  }
                }
              }
            }
          }
        }
      }
    }
  }
  JOINT rButtock
  {
    OFFSET -8.77824 4.35084 1.2192
    CHANNELS 3 Zrotation Xrotation Yrotation
    JOINT rThigh
    {
      OFFSET 0 -1.70687 -2.19456
      CHANNELS 3 Zrotation Xrotation Yrotation
      JOINT rShin
      {
        OFFSET 0 -36.8199 0.73152
        CHANNELS 3 Zrotation Xrotation Yrotation
        JOINT rFoot
        {
          OFFSET 0.73152 -45.1104 -5.12064
          CHANNELS 3 Zrotation Xrotation Yrotation
          End Site
          {
            OFFSET -1.1221 -3.69964 12.103
          }
        }
      }
    }
  }
  JOINT lButtock
  {
    OFFSET 8.77824 4.35084 1.2192
    CHANNELS 3 Zrotation Xrotation Yrotation
    JOINT lThigh
    {
      OFFSET 0 -1.70687 -2.19456
      CHANNELS 3 Zrotation Xrotation Yrotation
      JOINT lShin
      {
        OFFSET 0 -36.8199 0.73152
        CHANNELS 3 Zrotation Xrotation Yrotation
        JOINT lFoot
        {
          OFFSET -0.73152 -45.1104 -5.12064
          CHANNELS 3 Zrotation Xrotation Yrotation
          End Site
          {
            OFFSET 1.1221 -3.69964 12.103
          }
        }
      }
    }
  }
}
MOTION
Frames:	5
Frame Time:	0.00833333
82.0873 68.9464 113.608 3.47459 -23.0775 -175.464 -9.4878 -18.8234 -3.31083 1.90275 12.3837 -0.606978 -0.46819 15.0709 -0.505377 4.81667 -0.435718 3.10898 -0 0 0 -0 0 0 2.60316e-014 4.83476e-013 8.17552e-014 74.956 16.2047 -2.88767 -19.174 -12.007 36.7107 -0.0584391 -6.88666 -0.972581 -1.19082e-009 3.19899e-009 -1.52766e-010 -2.06192e-009 5.5297e-009 -2.72113e-010 -1.19082e-009 3.19899e-009 -1.52772e-010 7.73091 5.47488 0.417314 -1.19082e-009 3.19899e-009 -1.52766e-010 2.90554 0.965183 0.102902 -1.19081e-009 3.19899e-009 -1.52765e-010 10.2786 0.731801 0.0259123 -1.19082e-009 3.19899e-009 -1.52757e-010 2.22167 -0.733487 -0.20892 2.60222e-014 4.83462e-013 8.16392e-014 -74.5617 22.4499 5.98203 14.8846 -7.6903 -27.3527 0.0185292 -3.86629 0.544216 -7.06105e-010 1.22301e-009 2.35633e-009 -1.22122e-009 2.10979e-009 4.07408e-009 -7.06108e-010 1.22301e-009 2.35634e-009 -7.73091 5.47488 -0.417314 -7.06105e-010 1.22301e-009 2.35634e-009 -2.90554 0.965183 -0.102902 -7.06115e-010 1.22301e-009 2.35633e-009 -10.2786 0.731801 -0.0259123 -7.061e-010 1.22301e-009 2.35633e-009 -2.22167 -0.733487 0.20892 -2.03217e-016 0 -3.88251e-019 -5.23561 -48.0803 16.6316 -0.723264 60.807 2.93717 -9.60661 -36.5648 -19.4315 2.03217e-016 0 3.88251e-019 3.8203 -36.5671 -9.36242 0.00452758 19.7017 -0.509567 -1.65997 -0.0654301 5.65289 
81.8449 68.4717 113.537 3.55054 -23.0485 -175.217 -9.8902 -18.4668 -3.49939 2.02801 12.4551 -0.676329 -0.52225 15.1258 -0.50106 5.00136 -0.887252 3.01159 -0 0 0 -0 0 0 2.92376e-014 5.66147e-013 1.56692e-013 74.9789 16.3285 -2.63907 -19.2468 -12.093 36.8814 -0.0606998 -7.01283 -0.99059 -1.73861e-009 4.58668e-009 3.61184e-011 -3.01156e-009 7.93179e-009 5.24155e-011 -1.73861e-009 4.58668e-009 3.61152e-011 7.73091 5.47488 0.417314 -1.73861e-009 4.58668e-009 3.61184e-011 2.90554 0.965183 0.102902 -1.73861e-009 4.58668e-009 3.61184e-011 10.2786 0.731801 0.0259123 -1.73862e-009 4.58668e-009 3.61247e-011 2.22167 -0.733487 -0.20892 2.92071e-014 5.66131e-013 1.56543e-013 -74.2967 22.3401 5.54133 14.8227 -7.63788 -27.2246 0.0180892 -3.83684 0.540048 -1.00708e-009 1.3065e-009 3.23459e-009 -1.74262e-009 2.25205e-009 5.59313e-009 -1.00709e-009 1.3065e-009 3.23461e-009 -7.73091 5.47488 -0.417314 -1.00708e-009 1.3065e-009 3.2346e-009 -2.90554 0.965183 -0.102902 -1.00709e-009 1.3065e-009 3.2346e-009 -10.2786 0.731801 -0.0259123 -1.00708e-009 1.3065e-009 3.23459e-009 -2.22167 -0.733487 0.20892 -2.03217e-016 0 -3.88251e-019 -5.3447 -48.3666 16.8507 -0.768811 61.8731 3.045 -9.69886 -36.6488 -19.6228 2.03217e-016 0 3.88251e-019 3.50904 -37.0498 -9.34734 0.00845858 20.3475 -0.510734 -1.58409 -1.13572 5.51581 
81.6219 68.091 113.466 3.4827 -23.2507 -175.024 -10.0314 -18.3368 -3.68654 1.99317 12.5236 -0.725701 -0.546484 15.2215 -0.458618 5.05391 -1.24006 3.02385 -0 0 0 -0 0 0 2.41598e-014 6.21433e-013 1.99797e-013 75.0914 16.3676 -2.42345 -19.3073 -12.1644 37.025 -0.0610462 -7.03025 -0.993081 -2.16208e-009 5.69986e-009 1.89477e-010 -3.74605e-009 9.85876e-009 3.15971e-010 -2.16207e-009 5.69986e-009 1.89473e-010 7.73091 5.47488 0.417314 -2.16208e-009 5.69986e-009 1.89478e-010 2.90554 0.965183 0.102902 -2.16207e-009 5.69986e-009 1.89477e-010 10.2786 0.731801 0.0259123 -2.16208e-009 5.69986e-009 1.89483e-010 2.22167 -0.733487 -0.20892 2.40922e-014 6.21418e-013 1.99621e-013 -73.9482 22.0994 5.02134 14.7221 -7.55295 -27.0168 0.0166825 -3.68774 0.518997 -1.24968e-009 1.60907e-009 3.91608e-009 -2.16192e-009 2.77479e-009 6.77147e-009 -1.24968e-009 1.60907e-009 3.9161e-009 -7.73091 5.47488 -0.417314 -1.24968e-009 1.60907e-009 3.91609e-009 -2.90554 0.965183 -0.102902 -1.24968e-009 1.60907e-009 3.91609e-009 -10.2786 0.731801 -0.0259123 -1.24967e-009 1.60907e-009 3.91608e-009 -2.22167 -0.733487 0.20892 -2.03217e-016 0 -3.88251e-019 -5.46597 -48.8843 16.9413 -0.808405 62.9239 3.17227 -9.92486 -36.5737 -20.1207 2.03217e-016 0 3.88251e-019 3.3135 -37.8301 -9.39313 0.0128654 21.0713 -0.51586 -1.51278 -2.08984 5.58147 
81.42 67.7564 113.389 3.30989 -23.6116 -174.901 -9.99596 -18.3601 -3.88744 1.84234 12.613 -0.769642 -0.548902 15.3469 -0.397662 5.02412 -1.54581 3.09233 -0 0 0 -0 0 0 1.36576e-014 6.60964e-013 2.28251e-013 75.2676 16.3317 -2.20521 -19.353 -12.2187 37.1329 -0.0600807 -6.97512 -0.985213 -2.5337e-009 6.72332e-009 3.39866e-010 -4.39099e-009 1.16306e-008 5.74626e-010 -2.5337e-009 6.72332e-009 3.39859e-010 7.73091 5.47488 0.417314 -2.5337e-009 6.72332e-009 3.39868e-010 2.90554 0.965183 0.102902 -2.5337e-009 6.72332e-009 3.39866e-010 10.2786 0.731801 0.0259123 -2.5337e-009 6.72332e-009 3.39872e-010 2.22167 -0.733487 -0.20892 1.35396e-014 6.60953e-013 2.28046e-013 -73.5258 21.7669 4.4077 14.5831 -7.43597 -26.7323 0.0145833 -3.43449 0.483269 -1.46643e-009 2.05739e-009 4.51971e-009 -2.53584e-009 3.55053e-009 7.8149e-009 -1.46643e-009 2.05739e-009 4.51973e-009 -7.73091 5.47488 -0.417314 -1.46643e-009 2.05739e-009 4.51972e-009 -2.90554 0.965183 -0.102902 -1.46643e-009 2.05738e-009 4.51971e-009 -10.2786 0.731801 -0.0259123 -1.46642e-009 2.05738e-009 4.51971e-009 -2.22167 -0.733487 0.20892 -2.03217e-016 0 -3.88251e-019 -5.62054 -49.5285 16.9113 -0.84349 63.9287 3.31071 -10.2369 -36.3696 -20.8291 2.03217e-016 0 3.88251e-019 3.17485 -38.8336 -9.55587 0.0177693 21.8716 -0.524795 -1.44365 -2.9356 5.7781 
81.2055 67.5323 113.274 3.10624 -23.9801 -174.854 -9.94539 -18.3833 -4.08018 1.67636 12.7178 -0.811386 -0.54348 15.4536 -0.355392 4.98927 -1.75276 3.14392 -0 0 0 -0 0 0 -1.51177e-015 6.5388e-013 2.35251e-013 75.4766 16.2304 -2.00156 -19.3772 -12.2478 37.1894 -0.0589261 -6.90918 -0.975806 -2.64085e-009 7.19917e-009 4.5929e-010 -4.57789e-009 1.2455e-008 7.80957e-010 -2.64085e-009 7.19918e-009 4.5928e-010 7.73091 5.47488 0.417314 -2.64085e-009 7.19918e-009 4.59293e-010 2.90554 0.965183 0.102902 -2.64085e-009 7.19918e-009 4.59291e-010 10.2786 0.731801 0.0259123 -2.64085e-009 7.19918e-009 4.59297e-010 2.22167 -0.733487 -0.20892 -1.67041e-015 6.53874e-013 2.35021e-013 -73.0831 21.4024 3.74277 14.4404 -7.31618 -26.4428 0.0120346 -3.10728 0.437135 -1.51103e-009 2.40027e-009 4.78519e-009 -2.61221e-009 4.14452e-009 8.27353e-009 -1.51103e-009 2.40027e-009 4.7852e-009 -7.73091 5.47488 -0.417314 -1.51102e-009 2.40027e-009 4.78519e-009 -2.90554 0.965183 -0.102902 -1.51103e-009 2.40026e-009 4.78519e-009 -10.2786 0.731801 -0.0259123 -1.51102e-009 2.40026e-009 4.78517e-009 -2.22167 -0.733487 0.20892 -2.03217e-016 0 -3.88251e-019 -5.71926 -50.0996 16.8869 -0.889147 64.8577 3.43475 -10.41 -36.1473 -21.3082 2.03217e-016 0 3.88251e-019 3.03784 -39.8151 -9.76126 0.0224647 22.6502 -0.533053 -1.38845 -3.6397 5.95241 
